<?xml version="1.0" encoding="iso-8859-1"?>
<!-- Uploaded to: SVG Repo, www.svgrepo.com, Generator: SVG Repo Mixer Tools -->
<svg version="1.1" id="Layer_1" xmlns="http://www.w3.org/2000/svg" xmlns:xlink="http://www.w3.org/1999/xlink" 
	 viewBox="0 0 511.999 511.999" xml:space="preserve">
<rect y="124.799" style="fill:#BEDDF5;" width="499.2" height="307.2"/>
<rect x="249.6" y="124.799" style="fill:#93C7EF;" width="249.6" height="307.2"/>
<rect y="35.199" style="fill:#0052B4;" width="499.2" height="102.4"/>
<circle style="fill:#FF5023;" cx="76.8" cy="86.399" r="19.2"/>
<circle style="fill:#FFDA44;" cx="140.8" cy="86.399" r="19.2"/>
<circle style="fill:#91DC5A;" cx="204.8" cy="86.399" r="19.2"/>
<g>
	<rect x="96" y="233.599" style="fill:#FFFFFF;" width="128" height="38.4"/>
	<rect x="96" y="310.399" style="fill:#FFFFFF;" width="128" height="38.4"/>
	<rect x="275.2" y="233.599" style="fill:#FFFFFF;" width="128" height="38.4"/>
	<rect x="275.2" y="310.399" style="fill:#FFFFFF;" width="153.6" height="38.4"/>
</g>
<rect x="249.6" y="35.199" style="fill:#003778;" width="249.6" height="102.4"/>
<rect x="94.72" y="310.399" style="fill:#FFFFFF;" width="128" height="38.4"/>
<path style="fill:#006DF0;" d="M502.45,420.982l-104.87-104.87c-6.159-6.159-14.373-9.55-23.133-9.55s-16.975,3.391-23.133,9.55
	c-6.159,6.159-9.55,14.374-9.55,23.133c0,8.759,3.392,16.974,9.55,23.133l104.87,104.87c6.159,6.158,14.374,9.55,23.133,9.55
	c8.759,0,16.974-3.392,23.132-9.55c6.159-6.161,9.55-14.374,9.55-23.133C511.999,435.357,508.608,427.142,502.45,420.982z"/>
<circle style="fill:#FFFFFF;" cx="371.2" cy="335.82" r="89.6"/>
<path style="fill:#003778;" d="M371.2,444.625c-59.992,0-108.8-48.808-108.8-108.8s48.808-108.8,108.8-108.8
	S480,275.833,480,335.825S431.192,444.625,371.2,444.625z M371.2,265.425c-38.819,0-70.4,31.581-70.4,70.4s31.581,70.4,70.4,70.4
	s70.4-31.581,70.4-70.4S410.019,265.425,371.2,265.425z"/>
</svg>